<svg width="130" height="40" viewBox="0 0 130 40" fill="none" xmlns="http://www.w3.org/2000/svg">
<path d="M32 24C27.5667 24 24 27.5667 24 32C24 36.4333 27.5667 40 32 40C36.4333 40 40 36.4333 40 32C40 27.5667 36.4333 24 32 24Z" fill="#A9EB00"/>
<path d="M8 24C3.56667 24 0 27.5667 0 32C0 36.4333 3.56667 40 8 40C12.4333 40 16 36.4333 16 32C16 27.5667 12.4333 24 8 24Z" fill="#A9EB00"/>
<path d="M56 16H121.333C125.767 16 129.333 12.4333 129.333 8C129.333 3.56667 125.767 0 121.333 0H56C51.5667 0 48 3.56667 48 8C48 12.4333 51.5667 16 56 16Z" fill="#A9EB00"/>
<path d="M8 7.2L3.66667 0H0V16H2.83333V3.86667L6.73333 10.0667H9.26667L13.1667 3.86667V16H16V0H12.3333L8 7.2Z" fill="white"/>
<path d="M37.067 13.2667H29.5003V9H35.467V6.3H29.5003V2.73333H37.067V0H26.667V16H37.067V13.2667Z" fill="white"/>
<path d="M58.7665 31.7C59.3999 30.9 59.7332 29.9 59.7332 28.6667C59.7332 27.2333 59.2999 26.1 58.3999 25.2333C57.5332 24.4 56.2665 23.9667 54.6999 23.9667H48.0332V39.9667H50.8665V33.3333H52.9999L56.8665 39.9667H60.0332L56.0665 33.1667C57.1999 33 58.0999 32.5 58.7665 31.7ZM50.8332 30.6333V26.7333H54.7332C55.3999 26.7333 55.9332 26.9 56.2999 27.2667C56.6999 27.6333 56.8999 28.1 56.8999 28.7333C56.8999 29.3333 56.6999 29.8 56.3332 30.1667C55.9332 30.5 55.4332 30.6667 54.7332 30.6667H50.8332V30.6333Z" fill="white"/>
<path d="M74.5333 24L68 40H71.1333L72.4667 36.6H79.5L80.8333 40H83.9667L77.4667 24H74.5333ZM73.5 33.8667L76 27.5L78.4667 33.8667H73.5Z" fill="white"/>
<path d="M119.866 24L113.333 40H116.466L117.8 36.6H124.833L126.166 40H129.3L122.8 24H119.866ZM118.833 33.8667L121.333 27.5L123.8 33.8667H118.833Z" fill="white"/>
<path d="M102.067 24.9333C100.767 24.3 99.2667 24 97.5667 24H93V40H97.5667C99.2667 40 100.767 39.6667 102.067 39.0333C103.367 38.4 104.367 37.4667 105.1 36.2667C105.833 35.0667 106.2 33.6333 106.2 32C106.2 30.3667 105.833 28.9333 105.1 27.7333C104.367 26.5 103.367 25.5667 102.067 24.9333ZM102.9 34.4333C102.6 35.1333 102.167 35.6667 101.633 36.1C101.1 36.5 100.467 36.8 99.8 37C99.1 37.2 98.3667 37.3 97.5333 37.3H95.8667V26.7333H97.5333C98.3667 26.7333 99.1333 26.8333 99.8 27.0333C100.5 27.2333 101.1 27.5333 101.633 27.9333C102.167 28.3333 102.6 28.9 102.9 29.5667C103.2 30.2667 103.367 31.0667 103.367 32.0333C103.367 32.9333 103.2 33.7333 102.9 34.4333Z" fill="white"/>
</svg>
