<svg width="1244" height="613" viewBox="0 0 1244 613" fill="none" xmlns="http://www.w3.org/2000/svg">
<g opacity="0.1">
<rect x="492" y="54" width="21" height="21" rx="10.5" fill="#848484"/>
<rect x="524" y="54" width="63" height="21" rx="10.5" fill="#848484"/>
<rect x="598" y="54" width="21" height="21" rx="10.5" fill="#848484"/>
<rect x="641" y="54" width="21" height="21" rx="10.5" fill="#848484"/>
<rect x="673" y="54" width="63" height="21" rx="10.5" fill="#848484"/>
<rect x="747" y="54" width="21" height="21" rx="10.5" fill="#848484"/>
<rect x="779" y="54" width="63" height="21" rx="10.5" fill="#848484"/>
<rect x="853" y="54" width="21" height="21" rx="10.5" fill="#848484"/>
<rect x="896" y="54" width="21" height="21" rx="10.5" fill="#848484"/>
<rect x="928" y="54" width="21" height="21" rx="10.5" fill="#848484"/>
<rect x="960" y="54" width="21" height="21" rx="10.5" fill="#848484"/>
<rect x="1003" y="54" width="21" height="21" rx="10.5" fill="#848484"/>
<rect x="1035" y="54" width="63" height="21" rx="10.5" fill="#848484"/>
<rect x="270" y="430" width="21" height="21" rx="10.5" fill="#848484"/>
<rect x="302" y="430" width="63" height="21" rx="10.5" fill="#848484"/>
<rect x="376" y="430" width="21" height="21" rx="10.5" fill="#848484"/>
<rect x="408" y="430" width="63" height="21" rx="10.5" fill="#848484"/>
<rect x="482" y="430" width="21" height="21" rx="10.5" fill="#848484"/>
<rect x="525" y="430" width="21" height="21" rx="10.5" fill="#848484"/>
<rect x="557" y="430" width="21" height="21" rx="10.5" fill="#848484"/>
<rect x="589" y="430" width="21" height="21" rx="10.5" fill="#848484"/>
<rect x="632" y="430" width="21" height="21" rx="10.5" fill="#848484"/>
<rect x="664" y="430" width="63" height="21" rx="10.5" fill="#848484"/>
<rect x="153" y="324" width="21" height="21" rx="10.5" fill="#848484"/>
<rect x="185" y="324" width="63" height="21" rx="10.5" fill="#848484"/>
<rect x="259" y="324" width="21" height="21" rx="10.5" fill="#848484"/>
<rect x="302" y="324" width="21" height="21" rx="10.5" fill="#848484"/>
<rect x="334" y="324" width="63" height="21" rx="10.5" fill="#848484"/>
<rect x="298" y="270" width="21" height="21" rx="10.5" fill="#848484"/>
<rect x="330" y="270" width="63" height="21" rx="10.5" fill="#848484"/>
<rect x="404" y="270" width="21" height="21" rx="10.5" fill="#848484"/>
<rect x="447" y="270" width="21" height="21" rx="10.5" fill="#848484"/>
<rect x="479" y="270" width="21" height="21" rx="10.5" fill="#848484"/>
<rect x="511" y="270" width="21" height="21" rx="10.5" fill="#848484"/>
<rect x="554" y="270" width="21" height="21" rx="10.5" fill="#848484"/>
<rect x="586" y="270" width="63" height="21" rx="10.5" fill="#848484"/>
<rect x="660" y="270" width="21" height="21" rx="10.5" fill="#848484"/>
<rect x="692" y="270" width="63" height="21" rx="10.5" fill="#848484"/>
<rect x="766" y="270" width="21" height="21" rx="10.5" fill="#848484"/>
<rect x="809" y="270" width="21" height="21" rx="10.5" fill="#848484"/>
<rect x="841" y="270" width="63" height="21" rx="10.5" fill="#848484"/>
<rect x="926" y="270" width="21" height="21" rx="10.5" fill="#848484"/>
<rect x="958" y="270" width="63" height="21" rx="10.5" fill="#848484"/>
<rect x="1032" y="270" width="63" height="21" rx="10.5" fill="#848484"/>
<rect x="1106" y="270" width="21" height="21" rx="10.5" fill="#848484"/>
<rect x="1149" y="270" width="21" height="21" rx="10.5" fill="#848484"/>
<rect x="1181" y="270" width="63" height="21" rx="10.5" fill="#848484"/>
<rect x="408" width="21" height="21" rx="10.5" fill="#848484"/>
<rect x="440" width="63" height="21" rx="10.5" fill="#848484"/>
<rect x="514" width="21" height="21" rx="10.5" fill="#848484"/>
<rect x="546" width="63" height="21" rx="10.5" fill="#848484"/>
<rect x="620" width="21" height="21" rx="10.5" fill="#848484"/>
<rect x="663" width="21" height="21" rx="10.5" fill="#848484"/>
<rect x="695" width="21" height="21" rx="10.5" fill="#848484"/>
<rect x="727" width="21" height="21" rx="10.5" fill="#848484"/>
<rect x="770" width="21" height="21" rx="10.5" fill="#848484"/>
<rect x="802" width="63" height="21" rx="10.5" fill="#848484"/>
<rect x="968" y="162" width="21" height="21" rx="10.5" fill="#848484"/>
<rect x="1000" y="162" width="63" height="21" rx="10.5" fill="#848484"/>
<rect x="1074" y="162" width="21" height="21" rx="10.5" fill="#848484"/>
<rect x="153" y="162" width="21" height="21" rx="10.5" fill="#848484"/>
<rect x="185" y="162" width="63" height="21" rx="10.5" fill="#848484"/>
<rect x="259" y="162" width="21" height="21" rx="10.5" fill="#848484"/>
<rect x="302" y="162" width="21" height="21" rx="10.5" fill="#848484"/>
<rect x="334" y="162" width="63" height="21" rx="10.5" fill="#848484"/>
<rect x="408" y="162" width="21" height="21" rx="10.5" fill="#848484"/>
<rect x="440" y="162" width="63" height="21" rx="10.5" fill="#848484"/>
<rect x="514" y="162" width="21" height="21" rx="10.5" fill="#848484"/>
<rect x="557" y="162" width="21" height="21" rx="10.5" fill="#848484"/>
<rect x="589" y="162" width="21" height="21" rx="10.5" fill="#848484"/>
<rect x="621" y="162" width="21" height="21" rx="10.5" fill="#848484"/>
<rect x="664" y="162" width="21" height="21" rx="10.5" fill="#848484"/>
<rect x="696" y="162" width="63" height="21" rx="10.5" fill="#848484"/>
<rect x="632" y="322" width="21" height="21" rx="10.5" fill="#848484"/>
<rect x="664" y="322" width="63" height="21" rx="10.5" fill="#848484"/>
<rect x="738" y="322" width="21" height="21" rx="10.5" fill="#848484"/>
<rect x="781" y="322" width="21" height="21" rx="10.5" fill="#848484"/>
<rect x="813" y="322" width="63" height="21" rx="10.5" fill="#848484"/>
<rect x="898" y="322" width="63" height="21" rx="10.5" fill="#848484"/>
<rect x="972" y="322" width="21" height="21" rx="10.5" fill="#848484"/>
<rect x="1004" y="322" width="63" height="21" rx="10.5" fill="#848484"/>
<rect x="1078" y="322" width="21" height="21" rx="10.5" fill="#848484"/>
<rect x="153" y="54" width="21" height="21" rx="10.5" fill="#848484"/>
<rect x="185" y="54" width="21" height="21" rx="10.5" fill="#848484"/>
<rect x="217" y="54" width="63" height="21" rx="10.5" fill="#848484"/>
<rect x="1046" y="430" width="21" height="21" rx="10.5" fill="#848484"/>
<rect x="1078" y="430" width="21" height="21" rx="10.5" fill="#848484"/>
<rect y="108" width="63" height="21" rx="10.5" fill="#848484"/>
<rect x="74" y="108" width="21" height="21" rx="10.5" fill="#848484"/>
<rect x="106" y="108" width="63" height="21" rx="10.5" fill="#848484"/>
<rect x="180" y="108" width="21" height="21" rx="10.5" fill="#848484"/>
<rect x="223" y="108" width="63" height="21" rx="10.5" fill="#848484"/>
<rect x="297" y="108" width="21" height="21" rx="10.5" fill="#848484"/>
<rect x="340" y="108" width="21" height="21" rx="10.5" fill="#848484"/>
<rect x="372" y="108" width="21" height="21" rx="10.5" fill="#848484"/>
<rect x="404" y="108" width="63" height="21" rx="10.5" fill="#848484"/>
<rect x="478" y="108" width="21" height="21" rx="10.5" fill="#848484"/>
<rect x="521" y="108" width="21" height="21" rx="10.5" fill="#848484"/>
<rect x="553" y="108" width="21" height="21" rx="10.5" fill="#848484"/>
<rect x="596" y="108" width="21" height="21" rx="10.5" fill="#848484"/>
<rect x="628" y="108" width="63" height="21" rx="10.5" fill="#848484"/>
<rect x="702" y="108" width="63" height="21" rx="10.5" fill="#848484"/>
<rect x="776" y="108" width="21" height="21" rx="10.5" fill="#848484"/>
<rect x="819" y="108" width="63" height="21" rx="10.5" fill="#848484"/>
<rect x="893" y="108" width="21" height="21" rx="10.5" fill="#848484"/>
<rect x="925" y="108" width="63" height="21" rx="10.5" fill="#848484"/>
<rect x="999" y="108" width="21" height="21" rx="10.5" fill="#848484"/>
<rect x="1042" y="108" width="63" height="21" rx="10.5" fill="#848484"/>
<rect x="1116" y="108" width="21" height="21" rx="10.5" fill="#848484"/>
<rect x="1148" y="108" width="21" height="21" rx="10.5" fill="#848484"/>
<rect x="57" y="376" width="63" height="21" rx="10.5" fill="#848484"/>
<rect x="131" y="376" width="21" height="21" rx="10.5" fill="#848484"/>
<rect x="174" y="376" width="21" height="21" rx="10.5" fill="#848484"/>
<rect x="206" y="376" width="21" height="21" rx="10.5" fill="#848484"/>
<rect x="238" y="376" width="63" height="21" rx="10.5" fill="#848484"/>
<rect x="312" y="376" width="21" height="21" rx="10.5" fill="#848484"/>
<rect x="355" y="376" width="21" height="21" rx="10.5" fill="#848484"/>
<rect x="387" y="376" width="21" height="21" rx="10.5" fill="#848484"/>
<rect x="430" y="376" width="21" height="21" rx="10.5" fill="#848484"/>
<rect x="462" y="376" width="63" height="21" rx="10.5" fill="#848484"/>
<rect x="536" y="376" width="63" height="21" rx="10.5" fill="#848484"/>
<rect x="610" y="376" width="21" height="21" rx="10.5" fill="#848484"/>
<rect x="653" y="376" width="63" height="21" rx="10.5" fill="#848484"/>
<rect x="727" y="376" width="21" height="21" rx="10.5" fill="#848484"/>
<rect x="759" y="376" width="63" height="21" rx="10.5" fill="#848484"/>
<rect x="833" y="376" width="21" height="21" rx="10.5" fill="#848484"/>
<rect x="876" y="376" width="63" height="21" rx="10.5" fill="#848484"/>
<rect x="950" y="376" width="21" height="21" rx="10.5" fill="#848484"/>
<rect x="982" y="376" width="21" height="21" rx="10.5" fill="#848484"/>
<rect x="1025" y="376" width="21" height="21" rx="10.5" fill="#848484"/>
<rect x="1057" y="376" width="21" height="21" rx="10.5" fill="#848484"/>
<rect x="1089" y="376" width="63" height="21" rx="10.5" fill="#848484"/>
<rect x="1163" y="376" width="21" height="21" rx="10.5" fill="#848484"/>
<rect x="123" y="216" width="21" height="21" rx="10.5" fill="#848484"/>
<rect x="155" y="216" width="21" height="21" rx="10.5" fill="#848484"/>
<rect x="198" y="216" width="63" height="21" rx="10.5" fill="#848484"/>
<rect x="272" y="216" width="21" height="21" rx="10.5" fill="#848484"/>
<rect x="304" y="216" width="63" height="21" rx="10.5" fill="#848484"/>
<rect x="378" y="216" width="21" height="21" rx="10.5" fill="#848484"/>
<rect x="421" y="216" width="63" height="21" rx="10.5" fill="#848484"/>
<rect x="495" y="216" width="21" height="21" rx="10.5" fill="#848484"/>
<rect x="538" y="216" width="21" height="21" rx="10.5" fill="#848484"/>
<rect x="570" y="216" width="21" height="21" rx="10.5" fill="#848484"/>
<rect x="602" y="216" width="63" height="21" rx="10.5" fill="#848484"/>
<rect x="676" y="216" width="21" height="21" rx="10.5" fill="#848484"/>
<rect x="719" y="216" width="63" height="21" rx="10.5" fill="#848484"/>
<rect x="793" y="216" width="21" height="21" rx="10.5" fill="#848484"/>
<rect x="825" y="216" width="21" height="21" rx="10.5" fill="#848484"/>
<rect x="868" y="216" width="21" height="21" rx="10.5" fill="#848484"/>
<rect x="900" y="216" width="63" height="21" rx="10.5" fill="#848484"/>
<rect x="974" y="216" width="63" height="21" rx="10.5" fill="#848484"/>
<rect x="1048" y="216" width="21" height="21" rx="10.5" fill="#848484"/>
<rect x="1091" y="216" width="63" height="21" rx="10.5" fill="#848484"/>
<rect x="1165" y="216" width="21" height="21" rx="10.5" fill="#848484"/>
<rect x="240" y="592" width="21" height="21" rx="10.5" fill="#848484"/>
<rect x="272" y="592" width="63" height="21" rx="10.5" fill="#848484"/>
<rect x="346" y="592" width="21" height="21" rx="10.5" fill="#848484"/>
<rect x="389" y="592" width="21" height="21" rx="10.5" fill="#848484"/>
<rect x="421" y="592" width="21" height="21" rx="10.5" fill="#848484"/>
<rect x="453" y="592" width="21" height="21" rx="10.5" fill="#848484"/>
<rect x="496" y="592" width="21" height="21" rx="10.5" fill="#848484"/>
<rect x="528" y="592" width="63" height="21" rx="10.5" fill="#848484"/>
<rect x="602" y="592" width="21" height="21" rx="10.5" fill="#848484"/>
<rect x="634" y="592" width="63" height="21" rx="10.5" fill="#848484"/>
<rect x="708" y="592" width="21" height="21" rx="10.5" fill="#848484"/>
<rect x="751" y="592" width="21" height="21" rx="10.5" fill="#848484"/>
<rect x="783" y="592" width="63" height="21" rx="10.5" fill="#848484"/>
<rect x="868" y="592" width="21" height="21" rx="10.5" fill="#848484"/>
<rect x="900" y="592" width="63" height="21" rx="10.5" fill="#848484"/>
<rect x="974" y="592" width="63" height="21" rx="10.5" fill="#848484"/>
<rect x="1048" y="592" width="21" height="21" rx="10.5" fill="#848484"/>
<rect x="1091" y="592" width="21" height="21" rx="10.5" fill="#848484"/>
<rect x="1123" y="592" width="63" height="21" rx="10.5" fill="#848484"/>
<rect x="914" y="484" width="21" height="21" rx="10.5" fill="#848484"/>
<rect x="946" y="484" width="63" height="21" rx="10.5" fill="#848484"/>
<rect x="1020" y="484" width="21" height="21" rx="10.5" fill="#848484"/>
<rect x="230" y="484" width="21" height="21" rx="10.5" fill="#848484"/>
<rect x="262" y="484" width="63" height="21" rx="10.5" fill="#848484"/>
<rect x="336" y="484" width="21" height="21" rx="10.5" fill="#848484"/>
<rect x="379" y="484" width="21" height="21" rx="10.5" fill="#848484"/>
<rect x="411" y="484" width="63" height="21" rx="10.5" fill="#848484"/>
<rect x="485" y="484" width="21" height="21" rx="10.5" fill="#848484"/>
<rect x="517" y="484" width="63" height="21" rx="10.5" fill="#848484"/>
<rect x="591" y="484" width="21" height="21" rx="10.5" fill="#848484"/>
<rect x="634" y="484" width="21" height="21" rx="10.5" fill="#848484"/>
<rect x="666" y="484" width="21" height="21" rx="10.5" fill="#848484"/>
<rect x="698" y="484" width="21" height="21" rx="10.5" fill="#848484"/>
<rect x="741" y="484" width="21" height="21" rx="10.5" fill="#848484"/>
<rect x="773" y="484" width="63" height="21" rx="10.5" fill="#848484"/>
<rect x="158" y="538" width="21" height="21" rx="10.5" fill="#848484"/>
<rect x="190" y="538" width="21" height="21" rx="10.5" fill="#848484"/>
<rect x="233" y="538" width="63" height="21" rx="10.5" fill="#848484"/>
<rect x="307" y="538" width="21" height="21" rx="10.5" fill="#848484"/>
<rect x="339" y="538" width="63" height="21" rx="10.5" fill="#848484"/>
<rect x="413" y="538" width="21" height="21" rx="10.5" fill="#848484"/>
<rect x="456" y="538" width="63" height="21" rx="10.5" fill="#848484"/>
<rect x="530" y="538" width="21" height="21" rx="10.5" fill="#848484"/>
<rect x="573" y="538" width="21" height="21" rx="10.5" fill="#848484"/>
<rect x="605" y="538" width="21" height="21" rx="10.5" fill="#848484"/>
<rect x="637" y="538" width="63" height="21" rx="10.5" fill="#848484"/>
<rect x="711" y="538" width="21" height="21" rx="10.5" fill="#848484"/>
<rect x="754" y="538" width="63" height="21" rx="10.5" fill="#848484"/>
<rect x="828" y="538" width="21" height="21" rx="10.5" fill="#848484"/>
<rect x="860" y="538" width="21" height="21" rx="10.5" fill="#848484"/>
<rect x="903" y="538" width="63" height="21" rx="10.5" fill="#848484"/>
<rect x="977" y="538" width="21" height="21" rx="10.5" fill="#848484"/>
<rect x="1009" y="538" width="63" height="21" rx="10.5" fill="#848484"/>
<rect x="1083" y="538" width="21" height="21" rx="10.5" fill="#848484"/>
</g>
<rect x="463" y="109" width="21" height="21" rx="10.5" fill="#A9EB00"/>
<rect x="495" y="109" width="63" height="21" rx="10.5" fill="#A9EB00"/>
<rect x="447" y="325" width="21" height="21" rx="10.5" fill="#A9EB00"/>
<rect x="411" y="55" width="63" height="21" rx="10.5" fill="#A9EB00"/>
<rect x="741" y="55" width="21" height="21" rx="10.5" fill="#A9EB00"/>
<rect x="773" y="55" width="63" height="21" rx="10.5" fill="#A9EB00"/>
<rect x="939" y="217" width="21" height="21" rx="10.5" fill="#A9EB00"/>
<rect x="971" y="217" width="63" height="21" rx="10.5" fill="#A9EB00"/>
<rect x="156" y="217" width="63" height="21" rx="10.5" fill="#A9EB00"/>
<rect x="230" y="217" width="21" height="21" rx="10.5" fill="#A9EB00"/>
<rect x="752" y="377" width="21" height="21" rx="10.5" fill="#A9EB00"/>
<rect x="869" y="377" width="63" height="21" rx="10.5" fill="#A9EB00"/>
<rect x="943" y="377" width="21" height="21" rx="10.5" fill="#A9EB00"/>
<rect x="975" y="377" width="63" height="21" rx="10.5" fill="#A9EB00"/>
<rect x="343" y="163" width="21" height="21" rx="10.5" fill="#A9EB00"/>
<rect x="375" y="163" width="63" height="21" rx="10.5" fill="#A9EB00"/>
<rect x="1087" y="163" width="21" height="21" rx="10.5" fill="#A9EB00"/>
<rect x="209" y="431" width="63" height="21" rx="10.5" fill="#A9EB00"/>
<rect x="283" y="431" width="21" height="21" rx="10.5" fill="#A9EB00"/>
<rect x="349" y="271" width="21" height="21" rx="10.5" fill="#A9EB00"/>
<rect x="839" y="271" width="21" height="21" rx="10.5" fill="#A9EB00"/>
<path d="M172.25 62V83H180.11C187.58 83 191.12 78.59 191.12 72.5C191.12 66.41 187.58 62 180.11 62H172.25ZM186.53 72.5C186.53 76.82 184.28 79.04 180.11 79.04H176.75V65.96H180.11C184.28 65.96 186.53 68.18 186.53 72.5ZM200.516 62V83H215.486V79.04H205.016V74.36H214.406V70.43H205.016V65.96H215.306V62H200.516ZM223.627 72.74C223.627 80.06 229.357 83.42 234.967 83.42C237.187 83.42 239.257 82.94 241.057 82.07V77.66C239.797 78.8 237.817 79.4 235.657 79.4C231.997 79.4 228.217 77.36 228.247 72.74C228.247 67.67 231.967 65.57 235.657 65.57C237.607 65.57 239.557 66.17 240.907 67.22V62.93C239.107 62.03 237.007 61.58 234.907 61.58C229.297 61.58 223.657 65.06 223.627 72.74ZM249.021 72.5C249.021 78.2 252.741 83.42 260.181 83.42C267.621 83.42 271.341 78.2 271.341 72.5C271.341 66.8 267.621 61.58 260.181 61.58C252.741 61.58 249.021 66.8 249.021 72.5ZM266.721 72.5C266.721 76.19 264.531 79.25 260.181 79.25C255.801 79.25 253.611 76.19 253.611 72.5C253.611 68.81 255.801 65.75 260.181 65.75C264.531 65.75 266.721 68.81 266.721 72.5ZM280.684 62V83H288.544C296.014 83 299.554 78.59 299.554 72.5C299.554 66.41 296.014 62 288.544 62H280.684ZM294.964 72.5C294.964 76.82 292.714 79.04 288.544 79.04H285.184V65.96H288.544C292.714 65.96 294.964 68.18 294.964 72.5ZM308.949 62V83H313.449V62H308.949ZM328.443 83V72.17C328.443 71.21 328.413 70.16 328.353 69.29L338.133 83H342.363V62H337.863V72.83C337.863 73.79 337.893 74.84 337.953 75.71L328.173 62H323.943V83H328.443ZM351.714 72.5C351.714 80.21 357.384 83.42 363.264 83.42C365.604 83.42 368.004 82.91 370.104 82.01V71.6H365.814V79.1C365.184 79.34 364.404 79.49 363.504 79.49C360.414 79.49 356.304 78.08 356.304 72.5C356.304 67.58 359.994 65.6 363.744 65.6C365.874 65.6 368.004 66.17 369.594 67.22V62.93C367.644 62.06 365.394 61.58 363.144 61.58C357.384 61.58 351.714 64.88 351.714 72.5Z" fill="white"/>
<path d="M727.25 160V181H735.11C742.58 181 746.12 176.59 746.12 170.5C746.12 164.41 742.58 160 735.11 160H727.25ZM741.53 170.5C741.53 174.82 739.28 177.04 735.11 177.04H731.75V163.96H735.11C739.28 163.96 741.53 166.18 741.53 170.5ZM760.016 181V173.65H763.316L768.986 181H774.176L767.906 173.08C770.456 172.27 772.496 170.44 772.496 166.84C772.496 161.53 768.236 160 764.156 160H755.516V181H760.016ZM760.016 163.96H764.366C766.256 163.96 767.906 164.77 767.906 166.93C767.906 169.06 766.256 169.9 764.366 169.9H760.016V163.96ZM782.697 160V181H797.667V177.04H787.197V172.36H796.587V168.43H787.197V163.96H797.487V160H782.697ZM809.732 181L811.292 177.07H820.892L822.422 181H827.072L818.522 160H813.662L805.082 181H809.732ZM815.612 165.82C815.792 165.4 815.942 164.98 816.092 164.17C816.242 164.98 816.392 165.4 816.542 165.82L819.482 173.35H812.702L815.612 165.82ZM853.96 160L846.79 170.92L839.59 160H835.42V181H839.92V168.04L845.47 176.5H848.08L853.63 168.07V181H858.13V160H853.96ZM867.707 165.55C867.707 172.99 879.197 171.52 879.197 175.45C879.197 176.95 877.697 177.46 875.267 177.46C872.867 177.46 870.227 176.83 867.827 175.24V179.53C869.987 180.73 872.687 181.42 875.597 181.42C880.007 181.42 883.787 179.95 883.787 175.24C883.787 167.77 872.297 169.12 872.297 165.49C872.297 164.2 873.437 163.57 875.717 163.54C878.057 163.51 880.427 164.14 882.197 165.4V161.2C880.397 160.18 877.877 159.58 875.387 159.58C871.247 159.58 867.707 161.5 867.707 165.55Z" fill="white"/>
<path d="M192.25 278V299H196.75V278H192.25ZM211.744 299V288.17C211.744 287.21 211.714 286.16 211.654 285.29L221.434 299H225.664V278H221.164V288.83C221.164 289.79 221.194 290.84 221.254 291.71L211.474 278H207.244V299H211.744ZM234.294 278V282.05H240.744V299H245.214V282.05H251.664V278H234.294ZM258.475 288.5C258.475 294.2 262.195 299.42 269.635 299.42C277.075 299.42 280.795 294.2 280.795 288.5C280.795 282.8 277.075 277.58 269.635 277.58C262.195 277.58 258.475 282.8 258.475 288.5ZM276.175 288.5C276.175 292.19 273.985 295.25 269.635 295.25C265.255 295.25 263.065 292.19 263.065 288.5C263.065 284.81 265.255 281.75 269.635 281.75C273.985 281.75 276.175 284.81 276.175 288.5Z" fill="white"/>
<path d="M642.32 437.55C642.32 444.99 653.81 443.52 653.81 447.45C653.81 448.95 652.31 449.46 649.88 449.46C647.48 449.46 644.84 448.83 642.44 447.24V451.53C644.6 452.73 647.3 453.42 650.21 453.42C654.62 453.42 658.4 451.95 658.4 447.24C658.4 439.77 646.91 441.12 646.91 437.49C646.91 436.2 648.05 435.57 650.33 435.54C652.67 435.51 655.04 436.14 656.81 437.4V433.2C655.01 432.18 652.49 431.58 650 431.58C645.86 431.58 642.32 433.5 642.32 437.55ZM666.273 442.5C666.273 448.2 669.993 453.42 677.433 453.42C684.873 453.42 688.593 448.2 688.593 442.5C688.593 436.8 684.873 431.58 677.433 431.58C669.993 431.58 666.273 436.8 666.273 442.5ZM683.973 442.5C683.973 446.19 681.783 449.25 677.433 449.25C673.053 449.25 670.863 446.19 670.863 442.5C670.863 438.81 673.053 435.75 677.433 435.75C681.783 435.75 683.973 438.81 683.973 442.5ZM697.936 432V453H702.436V444.99H711.886V440.94H702.436V436.05H712.756V432H697.936ZM720.152 432V436.05H726.602V453H731.072V436.05H737.522V432H720.152ZM770.446 432L766.276 447.87L761.746 432H757.786L753.256 447.87L749.086 432H744.226L750.706 453H755.596L759.766 438.69L763.936 453H768.826L775.306 432H770.446ZM784.871 453L786.431 449.07H796.031L797.561 453H802.211L793.661 432H788.801L780.221 453H784.871ZM790.751 437.82C790.931 437.4 791.081 436.98 791.231 436.17C791.381 436.98 791.531 437.4 791.681 437.82L794.621 445.35H787.841L790.751 437.82ZM815.059 453V445.65H818.359L824.029 453H829.219L822.949 445.08C825.499 444.27 827.539 442.44 827.539 438.84C827.539 433.53 823.279 432 819.199 432H810.559V453H815.059ZM815.059 435.96H819.409C821.299 435.96 822.949 436.77 822.949 438.93C822.949 441.06 821.299 441.9 819.409 441.9H815.059V435.96ZM837.74 432V453H852.71V449.04H842.24V444.36H851.63V440.43H842.24V435.96H852.53V432H837.74Z" fill="white"/>
<path d="M510.32 329.55C510.32 336.99 521.81 335.52 521.81 339.45C521.81 340.95 520.31 341.46 517.88 341.46C515.48 341.46 512.84 340.83 510.44 339.24V343.53C512.6 344.73 515.3 345.42 518.21 345.42C522.62 345.42 526.4 343.95 526.4 339.24C526.4 331.77 514.91 333.12 514.91 329.49C514.91 328.2 516.05 327.57 518.33 327.54C520.67 327.51 523.04 328.14 524.81 329.4V325.2C523.01 324.18 520.49 323.58 518 323.58C513.86 323.58 510.32 325.5 510.32 329.55ZM549.183 324V336.87C549.183 340.2 547.263 341.37 544.443 341.37C541.653 341.37 539.733 340.2 539.733 336.87V324H535.233V337.11C535.233 343.32 539.793 345.42 544.443 345.42C549.093 345.42 553.653 343.32 553.653 337.11V324H549.183ZM563.943 324V345H568.443V338.1H571.863C576.933 338.1 580.923 336.48 580.923 331.05C580.923 325.62 576.933 324 571.863 324H563.943ZM576.333 331.05C576.333 333.51 574.383 334.14 572.073 334.14H568.443V327.96H572.073C574.383 327.96 576.333 328.56 576.333 331.05ZM589.924 324V345H604.894V341.04H594.424V336.36H603.814V332.43H594.424V327.96H604.714V324H589.924ZM618.969 345V337.65H622.269L627.939 345H633.129L626.859 337.08C629.409 336.27 631.449 334.44 631.449 330.84C631.449 325.53 627.189 324 623.109 324H614.469V345H618.969ZM618.969 327.96H623.319C625.209 327.96 626.859 328.77 626.859 330.93C626.859 333.06 625.209 333.9 623.319 333.9H618.969V327.96ZM641.65 324V345H650.68C654.34 345 658.93 343.89 658.93 339.12C658.93 336.03 656.98 334.5 654.91 333.9C656.77 333.27 658.09 331.77 658.09 329.31C658.09 325.71 655.3 324 650.83 324H641.65ZM654.43 338.64C654.43 340.92 652.63 341.34 650.62 341.34H646.12V335.94H650.86C652.66 335.94 654.43 336.42 654.43 338.64ZM653.62 330.09C653.62 331.71 652.39 332.49 650.68 332.49H646.15V327.69H650.44C652.42 327.69 653.62 328.44 653.62 330.09Z" fill="white"/>
<rect x="1013" y="430" width="21" height="21" rx="10.5" fill="#A9EB00"/>
</svg>
