<svg width="1244" height="613" viewBox="0 0 1244 613" fill="none" xmlns="http://www.w3.org/2000/svg">
<g opacity="0.1">
<rect x="492" y="54" width="21" height="21" rx="10.5" fill="#848484"/>
<rect x="524" y="54" width="63" height="21" rx="10.5" fill="#848484"/>
<rect x="598" y="54" width="21" height="21" rx="10.5" fill="#848484"/>
<rect x="641" y="54" width="21" height="21" rx="10.5" fill="#848484"/>
<rect x="673" y="54" width="63" height="21" rx="10.5" fill="#848484"/>
<rect x="747" y="54" width="21" height="21" rx="10.5" fill="#848484"/>
<rect x="779" y="54" width="63" height="21" rx="10.5" fill="#848484"/>
<rect x="853" y="54" width="21" height="21" rx="10.5" fill="#848484"/>
<rect x="896" y="54" width="21" height="21" rx="10.5" fill="#848484"/>
<rect x="928" y="54" width="21" height="21" rx="10.5" fill="#848484"/>
<rect x="960" y="54" width="21" height="21" rx="10.5" fill="#848484"/>
<rect x="1003" y="54" width="21" height="21" rx="10.5" fill="#848484"/>
<rect x="1035" y="54" width="63" height="21" rx="10.5" fill="#848484"/>
<rect x="270" y="430" width="21" height="21" rx="10.5" fill="#848484"/>
<rect x="302" y="430" width="63" height="21" rx="10.5" fill="#848484"/>
<rect x="376" y="430" width="21" height="21" rx="10.5" fill="#848484"/>
<rect x="408" y="430" width="63" height="21" rx="10.5" fill="#848484"/>
<rect x="482" y="430" width="21" height="21" rx="10.5" fill="#848484"/>
<rect x="525" y="430" width="21" height="21" rx="10.5" fill="#848484"/>
<rect x="557" y="430" width="21" height="21" rx="10.5" fill="#848484"/>
<rect x="589" y="430" width="21" height="21" rx="10.5" fill="#848484"/>
<rect x="632" y="430" width="21" height="21" rx="10.5" fill="#848484"/>
<rect x="664" y="430" width="63" height="21" rx="10.5" fill="#848484"/>
<rect x="153" y="324" width="21" height="21" rx="10.5" fill="#848484"/>
<rect x="185" y="324" width="63" height="21" rx="10.5" fill="#848484"/>
<rect x="259" y="324" width="21" height="21" rx="10.5" fill="#848484"/>
<rect x="302" y="324" width="21" height="21" rx="10.5" fill="#848484"/>
<rect x="334" y="324" width="63" height="21" rx="10.5" fill="#848484"/>
<rect x="298" y="270" width="21" height="21" rx="10.5" fill="#848484"/>
<rect x="330" y="270" width="63" height="21" rx="10.5" fill="#848484"/>
<rect x="404" y="270" width="21" height="21" rx="10.5" fill="#848484"/>
<rect x="447" y="270" width="21" height="21" rx="10.5" fill="#848484"/>
<rect x="479" y="270" width="21" height="21" rx="10.5" fill="#848484"/>
<rect x="511" y="270" width="21" height="21" rx="10.5" fill="#848484"/>
<rect x="554" y="270" width="21" height="21" rx="10.5" fill="#848484"/>
<rect x="586" y="270" width="63" height="21" rx="10.5" fill="#848484"/>
<rect x="660" y="270" width="21" height="21" rx="10.5" fill="#848484"/>
<rect x="692" y="270" width="63" height="21" rx="10.5" fill="#848484"/>
<rect x="766" y="270" width="21" height="21" rx="10.5" fill="#848484"/>
<rect x="809" y="270" width="21" height="21" rx="10.5" fill="#848484"/>
<rect x="841" y="270" width="63" height="21" rx="10.5" fill="#848484"/>
<rect x="926" y="270" width="21" height="21" rx="10.5" fill="#848484"/>
<rect x="958" y="270" width="63" height="21" rx="10.5" fill="#848484"/>
<rect x="1032" y="270" width="63" height="21" rx="10.5" fill="#848484"/>
<rect x="1106" y="270" width="21" height="21" rx="10.5" fill="#848484"/>
<rect x="1149" y="270" width="21" height="21" rx="10.5" fill="#848484"/>
<rect x="1181" y="270" width="63" height="21" rx="10.5" fill="#848484"/>
<rect x="408" width="21" height="21" rx="10.5" fill="#848484"/>
<rect x="440" width="63" height="21" rx="10.5" fill="#848484"/>
<rect x="514" width="21" height="21" rx="10.5" fill="#848484"/>
<rect x="546" width="63" height="21" rx="10.5" fill="#848484"/>
<rect x="620" width="21" height="21" rx="10.5" fill="#848484"/>
<rect x="663" width="21" height="21" rx="10.5" fill="#848484"/>
<rect x="695" width="21" height="21" rx="10.5" fill="#848484"/>
<rect x="727" width="21" height="21" rx="10.5" fill="#848484"/>
<rect x="770" width="21" height="21" rx="10.5" fill="#848484"/>
<rect x="802" width="63" height="21" rx="10.5" fill="#848484"/>
<rect x="968" y="162" width="21" height="21" rx="10.5" fill="#848484"/>
<rect x="1000" y="162" width="63" height="21" rx="10.5" fill="#848484"/>
<rect x="1074" y="162" width="21" height="21" rx="10.5" fill="#848484"/>
<rect x="153" y="162" width="21" height="21" rx="10.5" fill="#848484"/>
<rect x="185" y="162" width="63" height="21" rx="10.5" fill="#848484"/>
<rect x="259" y="162" width="21" height="21" rx="10.5" fill="#848484"/>
<rect x="302" y="162" width="21" height="21" rx="10.5" fill="#848484"/>
<rect x="334" y="162" width="63" height="21" rx="10.5" fill="#848484"/>
<rect x="408" y="162" width="21" height="21" rx="10.5" fill="#848484"/>
<rect x="440" y="162" width="63" height="21" rx="10.5" fill="#848484"/>
<rect x="514" y="162" width="21" height="21" rx="10.5" fill="#848484"/>
<rect x="557" y="162" width="21" height="21" rx="10.5" fill="#848484"/>
<rect x="589" y="162" width="21" height="21" rx="10.5" fill="#848484"/>
<rect x="621" y="162" width="21" height="21" rx="10.5" fill="#848484"/>
<rect x="664" y="162" width="21" height="21" rx="10.5" fill="#848484"/>
<rect x="696" y="162" width="63" height="21" rx="10.5" fill="#848484"/>
<rect x="632" y="322" width="21" height="21" rx="10.5" fill="#848484"/>
<rect x="664" y="322" width="63" height="21" rx="10.5" fill="#848484"/>
<rect x="738" y="322" width="21" height="21" rx="10.5" fill="#848484"/>
<rect x="781" y="322" width="21" height="21" rx="10.5" fill="#848484"/>
<rect x="813" y="322" width="63" height="21" rx="10.5" fill="#848484"/>
<rect x="898" y="322" width="63" height="21" rx="10.5" fill="#848484"/>
<rect x="972" y="322" width="21" height="21" rx="10.5" fill="#848484"/>
<rect x="1004" y="322" width="63" height="21" rx="10.5" fill="#848484"/>
<rect x="1078" y="322" width="21" height="21" rx="10.5" fill="#848484"/>
<rect x="153" y="54" width="21" height="21" rx="10.5" fill="#848484"/>
<rect x="185" y="54" width="21" height="21" rx="10.5" fill="#848484"/>
<rect x="217" y="54" width="63" height="21" rx="10.5" fill="#848484"/>
<rect x="1046" y="430" width="21" height="21" rx="10.5" fill="#848484"/>
<rect x="1078" y="430" width="21" height="21" rx="10.5" fill="#848484"/>
<rect y="108" width="63" height="21" rx="10.5" fill="#848484"/>
<rect x="74" y="108" width="21" height="21" rx="10.5" fill="#848484"/>
<rect x="106" y="108" width="63" height="21" rx="10.5" fill="#848484"/>
<rect x="180" y="108" width="21" height="21" rx="10.5" fill="#848484"/>
<rect x="223" y="108" width="63" height="21" rx="10.5" fill="#848484"/>
<rect x="297" y="108" width="21" height="21" rx="10.5" fill="#848484"/>
<rect x="340" y="108" width="21" height="21" rx="10.5" fill="#848484"/>
<rect x="372" y="108" width="21" height="21" rx="10.5" fill="#848484"/>
<rect x="404" y="108" width="63" height="21" rx="10.5" fill="#848484"/>
<rect x="478" y="108" width="21" height="21" rx="10.5" fill="#848484"/>
<rect x="521" y="108" width="21" height="21" rx="10.5" fill="#848484"/>
<rect x="553" y="108" width="21" height="21" rx="10.5" fill="#848484"/>
<rect x="596" y="108" width="21" height="21" rx="10.5" fill="#848484"/>
<rect x="628" y="108" width="63" height="21" rx="10.5" fill="#848484"/>
<rect x="702" y="108" width="63" height="21" rx="10.5" fill="#848484"/>
<rect x="776" y="108" width="21" height="21" rx="10.5" fill="#848484"/>
<rect x="819" y="108" width="63" height="21" rx="10.5" fill="#848484"/>
<rect x="893" y="108" width="21" height="21" rx="10.5" fill="#848484"/>
<rect x="925" y="108" width="63" height="21" rx="10.5" fill="#848484"/>
<rect x="999" y="108" width="21" height="21" rx="10.5" fill="#848484"/>
<rect x="1042" y="108" width="63" height="21" rx="10.5" fill="#848484"/>
<rect x="1116" y="108" width="21" height="21" rx="10.5" fill="#848484"/>
<rect x="1148" y="108" width="21" height="21" rx="10.5" fill="#848484"/>
<rect x="57" y="376" width="63" height="21" rx="10.5" fill="#848484"/>
<rect x="131" y="376" width="21" height="21" rx="10.5" fill="#848484"/>
<rect x="174" y="376" width="21" height="21" rx="10.5" fill="#848484"/>
<rect x="206" y="376" width="21" height="21" rx="10.5" fill="#848484"/>
<rect x="238" y="376" width="63" height="21" rx="10.5" fill="#848484"/>
<rect x="312" y="376" width="21" height="21" rx="10.5" fill="#848484"/>
<rect x="355" y="376" width="21" height="21" rx="10.5" fill="#848484"/>
<rect x="387" y="376" width="21" height="21" rx="10.5" fill="#848484"/>
<rect x="430" y="376" width="21" height="21" rx="10.5" fill="#848484"/>
<rect x="462" y="376" width="63" height="21" rx="10.5" fill="#848484"/>
<rect x="536" y="376" width="63" height="21" rx="10.5" fill="#848484"/>
<rect x="610" y="376" width="21" height="21" rx="10.5" fill="#848484"/>
<rect x="653" y="376" width="63" height="21" rx="10.5" fill="#848484"/>
<rect x="727" y="376" width="21" height="21" rx="10.5" fill="#848484"/>
<rect x="759" y="376" width="63" height="21" rx="10.5" fill="#848484"/>
<rect x="833" y="376" width="21" height="21" rx="10.5" fill="#848484"/>
<rect x="876" y="376" width="63" height="21" rx="10.5" fill="#848484"/>
<rect x="950" y="376" width="21" height="21" rx="10.5" fill="#848484"/>
<rect x="982" y="376" width="21" height="21" rx="10.5" fill="#848484"/>
<rect x="1025" y="376" width="21" height="21" rx="10.5" fill="#848484"/>
<rect x="1057" y="376" width="21" height="21" rx="10.5" fill="#848484"/>
<rect x="1089" y="376" width="63" height="21" rx="10.5" fill="#848484"/>
<rect x="1163" y="376" width="21" height="21" rx="10.5" fill="#848484"/>
<rect x="123" y="216" width="21" height="21" rx="10.5" fill="#848484"/>
<rect x="155" y="216" width="21" height="21" rx="10.5" fill="#848484"/>
<rect x="198" y="216" width="63" height="21" rx="10.5" fill="#848484"/>
<rect x="272" y="216" width="21" height="21" rx="10.5" fill="#848484"/>
<rect x="304" y="216" width="63" height="21" rx="10.5" fill="#848484"/>
<rect x="378" y="216" width="21" height="21" rx="10.5" fill="#848484"/>
<rect x="421" y="216" width="63" height="21" rx="10.5" fill="#848484"/>
<rect x="495" y="216" width="21" height="21" rx="10.5" fill="#848484"/>
<rect x="538" y="216" width="21" height="21" rx="10.5" fill="#848484"/>
<rect x="570" y="216" width="21" height="21" rx="10.5" fill="#848484"/>
<rect x="602" y="216" width="63" height="21" rx="10.5" fill="#848484"/>
<rect x="676" y="216" width="21" height="21" rx="10.5" fill="#848484"/>
<rect x="719" y="216" width="63" height="21" rx="10.5" fill="#848484"/>
<rect x="793" y="216" width="21" height="21" rx="10.5" fill="#848484"/>
<rect x="825" y="216" width="21" height="21" rx="10.5" fill="#848484"/>
<rect x="868" y="216" width="21" height="21" rx="10.5" fill="#848484"/>
<rect x="900" y="216" width="63" height="21" rx="10.5" fill="#848484"/>
<rect x="974" y="216" width="63" height="21" rx="10.5" fill="#848484"/>
<rect x="1048" y="216" width="21" height="21" rx="10.5" fill="#848484"/>
<rect x="1091" y="216" width="63" height="21" rx="10.5" fill="#848484"/>
<rect x="1165" y="216" width="21" height="21" rx="10.5" fill="#848484"/>
<rect x="240" y="592" width="21" height="21" rx="10.5" fill="#848484"/>
<rect x="272" y="592" width="63" height="21" rx="10.5" fill="#848484"/>
<rect x="346" y="592" width="21" height="21" rx="10.5" fill="#848484"/>
<rect x="389" y="592" width="21" height="21" rx="10.5" fill="#848484"/>
<rect x="421" y="592" width="21" height="21" rx="10.5" fill="#848484"/>
<rect x="453" y="592" width="21" height="21" rx="10.5" fill="#848484"/>
<rect x="496" y="592" width="21" height="21" rx="10.5" fill="#848484"/>
<rect x="528" y="592" width="63" height="21" rx="10.5" fill="#848484"/>
<rect x="602" y="592" width="21" height="21" rx="10.5" fill="#848484"/>
<rect x="634" y="592" width="63" height="21" rx="10.5" fill="#848484"/>
<rect x="708" y="592" width="21" height="21" rx="10.5" fill="#848484"/>
<rect x="751" y="592" width="21" height="21" rx="10.5" fill="#848484"/>
<rect x="783" y="592" width="63" height="21" rx="10.5" fill="#848484"/>
<rect x="868" y="592" width="21" height="21" rx="10.5" fill="#848484"/>
<rect x="900" y="592" width="63" height="21" rx="10.5" fill="#848484"/>
<rect x="974" y="592" width="63" height="21" rx="10.5" fill="#848484"/>
<rect x="1048" y="592" width="21" height="21" rx="10.5" fill="#848484"/>
<rect x="1091" y="592" width="21" height="21" rx="10.5" fill="#848484"/>
<rect x="1123" y="592" width="63" height="21" rx="10.5" fill="#848484"/>
<rect x="914" y="484" width="21" height="21" rx="10.5" fill="#848484"/>
<rect x="946" y="484" width="63" height="21" rx="10.5" fill="#848484"/>
<rect x="1020" y="484" width="21" height="21" rx="10.5" fill="#848484"/>
<rect x="230" y="484" width="21" height="21" rx="10.5" fill="#848484"/>
<rect x="262" y="484" width="63" height="21" rx="10.5" fill="#848484"/>
<rect x="336" y="484" width="21" height="21" rx="10.5" fill="#848484"/>
<rect x="379" y="484" width="21" height="21" rx="10.5" fill="#848484"/>
<rect x="411" y="484" width="63" height="21" rx="10.5" fill="#848484"/>
<rect x="485" y="484" width="21" height="21" rx="10.5" fill="#848484"/>
<rect x="517" y="484" width="63" height="21" rx="10.5" fill="#848484"/>
<rect x="591" y="484" width="21" height="21" rx="10.5" fill="#848484"/>
<rect x="634" y="484" width="21" height="21" rx="10.5" fill="#848484"/>
<rect x="666" y="484" width="21" height="21" rx="10.5" fill="#848484"/>
<rect x="698" y="484" width="21" height="21" rx="10.5" fill="#848484"/>
<rect x="741" y="484" width="21" height="21" rx="10.5" fill="#848484"/>
<rect x="773" y="484" width="63" height="21" rx="10.5" fill="#848484"/>
<rect x="158" y="538" width="21" height="21" rx="10.5" fill="#848484"/>
<rect x="190" y="538" width="21" height="21" rx="10.5" fill="#848484"/>
<rect x="233" y="538" width="63" height="21" rx="10.5" fill="#848484"/>
<rect x="307" y="538" width="21" height="21" rx="10.5" fill="#848484"/>
<rect x="339" y="538" width="63" height="21" rx="10.5" fill="#848484"/>
<rect x="413" y="538" width="21" height="21" rx="10.5" fill="#848484"/>
<rect x="456" y="538" width="63" height="21" rx="10.5" fill="#848484"/>
<rect x="530" y="538" width="21" height="21" rx="10.5" fill="#848484"/>
<rect x="573" y="538" width="21" height="21" rx="10.5" fill="#848484"/>
<rect x="605" y="538" width="21" height="21" rx="10.5" fill="#848484"/>
<rect x="637" y="538" width="63" height="21" rx="10.5" fill="#848484"/>
<rect x="711" y="538" width="21" height="21" rx="10.5" fill="#848484"/>
<rect x="754" y="538" width="63" height="21" rx="10.5" fill="#848484"/>
<rect x="828" y="538" width="21" height="21" rx="10.5" fill="#848484"/>
<rect x="860" y="538" width="21" height="21" rx="10.5" fill="#848484"/>
<rect x="903" y="538" width="63" height="21" rx="10.5" fill="#848484"/>
<rect x="977" y="538" width="21" height="21" rx="10.5" fill="#848484"/>
<rect x="1009" y="538" width="63" height="21" rx="10.5" fill="#848484"/>
<rect x="1083" y="538" width="21" height="21" rx="10.5" fill="#848484"/>
</g>
</svg>
