<svg width="685" height="400" viewBox="0 0 685 400" fill="none" xmlns="http://www.w3.org/2000/svg">
<path d="M2.25 2V23H10.11C17.58 23 21.12 18.59 21.12 12.5C21.12 6.41 17.58 2 10.11 2H2.25ZM16.53 12.5C16.53 16.82 14.28 19.04 10.11 19.04H6.75V5.96H10.11C14.28 5.96 16.53 8.18 16.53 12.5ZM30.5156 2V23H45.4856V19.04H35.0156V14.36H44.4056V10.43H35.0156V5.96H45.3056V2H30.5156ZM53.6269 12.74C53.6269 20.06 59.3569 23.42 64.9669 23.42C67.1869 23.42 69.2569 22.94 71.0569 22.07V17.66C69.7969 18.8 67.8169 19.4 65.6569 19.4C61.9969 19.4 58.2169 17.36 58.2469 12.74C58.2469 7.67 61.9669 5.57 65.6569 5.57C67.6069 5.57 69.5569 6.17 70.9069 7.22V2.93C69.1069 2.03 67.0069 1.58 64.9069 1.58C59.2969 1.58 53.6569 5.06 53.6269 12.74ZM79.0214 12.5C79.0214 18.2 82.7414 23.42 90.1814 23.42C97.6214 23.42 101.341 18.2 101.341 12.5C101.341 6.8 97.6214 1.58 90.1814 1.58C82.7414 1.58 79.0214 6.8 79.0214 12.5ZM96.7214 12.5C96.7214 16.19 94.5314 19.25 90.1814 19.25C85.8014 19.25 83.6114 16.19 83.6114 12.5C83.6114 8.81 85.8014 5.75 90.1814 5.75C94.5314 5.75 96.7214 8.81 96.7214 12.5ZM110.684 2V23H118.544C126.014 23 129.554 18.59 129.554 12.5C129.554 6.41 126.014 2 118.544 2H110.684ZM124.964 12.5C124.964 16.82 122.714 19.04 118.544 19.04H115.184V5.96H118.544C122.714 5.96 124.964 8.18 124.964 12.5ZM138.949 2V23H143.449V2H138.949ZM158.443 23V12.17C158.443 11.21 158.413 10.16 158.353 9.29L168.133 23H172.363V2H167.863V12.83C167.863 13.79 167.893 14.84 167.953 15.71L158.173 2H153.943V23H158.443ZM181.714 12.5C181.714 20.21 187.384 23.42 193.264 23.42C195.604 23.42 198.004 22.91 200.104 22.01V11.6H195.814V19.1C195.184 19.34 194.404 19.49 193.504 19.49C190.414 19.49 186.304 18.08 186.304 12.5C186.304 7.58 189.994 5.6 193.744 5.6C195.874 5.6 198.004 6.17 199.594 7.22V2.93C197.644 2.06 195.394 1.58 193.144 1.58C187.384 1.58 181.714 4.88 181.714 12.5Z" fill="white"/>
<path d="M509.25 104V125H517.11C524.58 125 528.12 120.59 528.12 114.5C528.12 108.41 524.58 104 517.11 104H509.25ZM523.53 114.5C523.53 118.82 521.28 121.04 517.11 121.04H513.75V107.96H517.11C521.28 107.96 523.53 110.18 523.53 114.5ZM542.016 125V117.65H545.316L550.986 125H556.176L549.906 117.08C552.456 116.27 554.496 114.44 554.496 110.84C554.496 105.53 550.236 104 546.156 104H537.516V125H542.016ZM542.016 107.96H546.366C548.256 107.96 549.906 108.77 549.906 110.93C549.906 113.06 548.256 113.9 546.366 113.9H542.016V107.96ZM564.697 104V125H579.667V121.04H569.197V116.36H578.587V112.43H569.197V107.96H579.487V104H564.697ZM591.732 125L593.292 121.07H602.892L604.422 125H609.072L600.522 104H595.662L587.082 125H591.732ZM597.612 109.82C597.792 109.4 597.942 108.98 598.092 108.17C598.242 108.98 598.392 109.4 598.542 109.82L601.482 117.35H594.702L597.612 109.82ZM635.96 104L628.79 114.92L621.59 104H617.42V125H621.92V112.04L627.47 120.5H630.08L635.63 112.07V125H640.13V104H635.96ZM649.707 109.55C649.707 116.99 661.197 115.52 661.197 119.45C661.197 120.95 659.697 121.46 657.267 121.46C654.867 121.46 652.227 120.83 649.827 119.24V123.53C651.987 124.73 654.687 125.42 657.597 125.42C662.007 125.42 665.787 123.95 665.787 119.24C665.787 111.77 654.297 113.12 654.297 109.49C654.297 108.2 655.437 107.57 657.717 107.54C660.057 107.51 662.427 108.14 664.197 109.4V105.2C662.397 104.18 659.877 103.58 657.387 103.58C653.247 103.58 649.707 105.5 649.707 109.55Z" fill="white"/>
<path d="M22.25 218V239H26.75V218H22.25ZM41.7441 239V228.17C41.7441 227.21 41.7141 226.16 41.6541 225.29L51.4341 239H55.6641V218H51.1641V228.83C51.1641 229.79 51.1941 230.84 51.2541 231.71L41.4741 218H37.2441V239H41.7441ZM64.2943 218V222.05H70.7443V239H75.2143V222.05H81.6643V218H64.2943ZM88.4745 228.5C88.4745 234.2 92.1945 239.42 99.6345 239.42C107.075 239.42 110.795 234.2 110.795 228.5C110.795 222.8 107.075 217.58 99.6345 217.58C92.1945 217.58 88.4745 222.8 88.4745 228.5ZM106.175 228.5C106.175 232.19 103.985 235.25 99.6345 235.25C95.2545 235.25 93.0645 232.19 93.0645 228.5C93.0645 224.81 95.2545 221.75 99.6345 221.75C103.985 221.75 106.175 224.81 106.175 228.5Z" fill="white"/>
<path d="M472.32 377.55C472.32 384.99 483.81 383.52 483.81 387.45C483.81 388.95 482.31 389.46 479.88 389.46C477.48 389.46 474.84 388.83 472.44 387.24V391.53C474.6 392.73 477.3 393.42 480.21 393.42C484.62 393.42 488.4 391.95 488.4 387.24C488.4 379.77 476.91 381.12 476.91 377.49C476.91 376.2 478.05 375.57 480.33 375.54C482.67 375.51 485.04 376.14 486.81 377.4V373.2C485.01 372.18 482.49 371.58 480 371.58C475.86 371.58 472.32 373.5 472.32 377.55ZM496.273 382.5C496.273 388.2 499.993 393.42 507.433 393.42C514.873 393.42 518.593 388.2 518.593 382.5C518.593 376.8 514.873 371.58 507.433 371.58C499.993 371.58 496.273 376.8 496.273 382.5ZM513.973 382.5C513.973 386.19 511.783 389.25 507.433 389.25C503.053 389.25 500.863 386.19 500.863 382.5C500.863 378.81 503.053 375.75 507.433 375.75C511.783 375.75 513.973 378.81 513.973 382.5ZM527.936 372V393H532.436V384.99H541.886V380.94H532.436V376.05H542.756V372H527.936ZM550.152 372V376.05H556.602V393H561.072V376.05H567.522V372H550.152ZM600.446 372L596.276 387.87L591.746 372H587.786L583.256 387.87L579.086 372H574.226L580.706 393H585.596L589.766 378.69L593.936 393H598.826L605.306 372H600.446ZM614.871 393L616.431 389.07H626.031L627.561 393H632.211L623.661 372H618.801L610.221 393H614.871ZM620.751 377.82C620.931 377.4 621.081 376.98 621.231 376.17C621.381 376.98 621.531 377.4 621.681 377.82L624.621 385.35H617.841L620.751 377.82ZM645.059 393V385.65H648.359L654.029 393H659.219L652.949 385.08C655.499 384.27 657.539 382.44 657.539 378.84C657.539 373.53 653.279 372 649.199 372H640.559V393H645.059ZM645.059 375.96H649.409C651.299 375.96 652.949 376.77 652.949 378.93C652.949 381.06 651.299 381.9 649.409 381.9H645.059V375.96ZM667.74 372V393H682.71V389.04H672.24V384.36H681.63V380.43H672.24V375.96H682.53V372H667.74Z" fill="white"/>
<path d="M374.32 275.55C374.32 282.99 385.81 281.52 385.81 285.45C385.81 286.95 384.31 287.46 381.88 287.46C379.48 287.46 376.84 286.83 374.44 285.24V289.53C376.6 290.73 379.3 291.42 382.21 291.42C386.62 291.42 390.4 289.95 390.4 285.24C390.4 277.77 378.91 279.12 378.91 275.49C378.91 274.2 380.05 273.57 382.33 273.54C384.67 273.51 387.04 274.14 388.81 275.4V271.2C387.01 270.18 384.49 269.58 382 269.58C377.86 269.58 374.32 271.5 374.32 275.55ZM413.183 270V282.87C413.183 286.2 411.263 287.37 408.443 287.37C405.653 287.37 403.733 286.2 403.733 282.87V270H399.233V283.11C399.233 289.32 403.793 291.42 408.443 291.42C413.093 291.42 417.653 289.32 417.653 283.11V270H413.183ZM427.943 270V291H432.443V284.1H435.863C440.933 284.1 444.923 282.48 444.923 277.05C444.923 271.62 440.933 270 435.863 270H427.943ZM440.333 277.05C440.333 279.51 438.383 280.14 436.073 280.14H432.443V273.96H436.073C438.383 273.96 440.333 274.56 440.333 277.05ZM453.924 270V291H468.894V287.04H458.424V282.36H467.814V278.43H458.424V273.96H468.714V270H453.924ZM482.969 291V283.65H486.269L491.939 291H497.129L490.859 283.08C493.409 282.27 495.449 280.44 495.449 276.84C495.449 271.53 491.189 270 487.109 270H478.469V291H482.969ZM482.969 273.96H487.319C489.209 273.96 490.859 274.77 490.859 276.93C490.859 279.06 489.209 279.9 487.319 279.9H482.969V273.96ZM505.65 270V291H514.68C518.34 291 522.93 289.89 522.93 285.12C522.93 282.03 520.98 280.5 518.91 279.9C520.77 279.27 522.09 277.77 522.09 275.31C522.09 271.71 519.3 270 514.83 270H505.65ZM518.43 284.64C518.43 286.92 516.63 287.34 514.62 287.34H510.12V281.94H514.86C516.66 281.94 518.43 282.42 518.43 284.64ZM517.62 276.09C517.62 277.71 516.39 278.49 514.68 278.49H510.15V273.69H514.44C516.42 273.69 517.62 274.44 517.62 276.09Z" fill="white"/>
</svg>
